<svg width="32" height="32" viewBox="0 0 32 32" fill="none" xmlns="http://www.w3.org/2000/svg">
  <rect width="32" height="32" rx="6" fill="#2563eb"/>
  <path d="M8 12c0-2.21 1.79-4 4-4s4 1.79 4 4v6c0 1.1.9 2 2 2s2-.9 2-2v-6.5c-.6-.3-1-.9-1-1.5 0-1.1.9-2 2-2s2 .9 2 2c0 .6-.4 1.2-1 1.5V18c0 2.21-1.79 4-4 4s-4-1.79-4-4v-6c0-1.1-.9-2-2-2s-2 .9-2 2v6.5c.6.3 1 .9 1 1.5 0 1.1-.9 2-2 2s-2-.9-2-2c0-.6.4-1.2 1-1.5V12z" fill="white"/>
  <circle cx="7" cy="21" r="1.5" fill="white"/>
  <circle cx="25" cy="11" r="1.5" fill="white"/>
</svg>
